<?xml version="1.0" encoding="utf-8"?>
<!-- Generator: Adobe Illustrator 19.0.0, SVG Export Plug-In . SVG Version: 6.00 Build 0)  -->
<svg version="1.1" id="Capa_1" xmlns="http://www.w3.org/2000/svg" xmlns:xlink="http://www.w3.org/1999/xlink" x="0px" y="0px"
	 viewBox="50 -50 612 612" style="enable-background:new 50 -50 612 612;" xml:space="preserve">
<style type="text/css">
	.st0{fill:#2B2B2B;}
</style>
<g>
	<g>
		<path class="st0" d="M140.9,331.1c2.2,35.4,16.8,70.2,43.8,97.3c58.8,58.8,154.2,58.8,213,0s58.8-154.2,0-213s-154.2-58.8-213,0
			c-18.1,18.1-30.6,39.7-37.6,62.6c9.1-2,19.1,0.5,26.2,7.6c11.1,11.1,11.1,29,0,40.1C164.5,334.4,151.4,336.2,140.9,331.1z
			 M306.4,335.6c12-12,31.4-12,43.4,0c12,12,12,31.4,0,43.4s-31.4,12-43.4,0C294.5,367,294.5,347.5,306.4,335.6z M249.7,219
			c10.2-10.2,26.8-10.2,37,0c10.2,10.2,10.2,26.8,0,37c-10.2,10.2-26.8,10.2-37,0C239.4,245.7,239.4,229.2,249.7,219z M206.2,350.7
			c9.1-9.1,23.9-9.1,33,0c9.1,9.1,9.1,23.9,0,33c-9.1,9.1-23.9,9.1-33,0C197.1,374.6,197.1,359.8,206.2,350.7z"/>
		<path class="st0" d="M443.7,488.4c6.7-7.7,13-15.8,18.9-24.4c11.2-16.2,22.6-32.4,32.9-49.2l6.3-9.9c4.2-6.6,8.4-13.3,12.5-19.9
			c4.1-6.7,75-128.1,82.6-141.8c3.8-6.8,7.5-13.7,11.2-20.5l11-20.7c7.3-13.8,14.6-27.6,21.7-41.5c7.1-13.9,14.1-27.9,21-41.9
			c-9.6,12.3-19,24.8-28.4,37.3l-28,37.5L577.7,231L550,268.6c0,0-101.7,136.8-111.2,148.9c0,0-6.8,8.6-7.1,9
			c-57.8,73.8-159.4,103.9-242.5,51.6c-11.1-7-21.4-15.2-30.8-24.5c-32.7-32.9-51.4-78.4-51.5-124.8
			c-0.2-56.9,26.5-105.9,69.7-141.4l8.9-7.2l9-7.1c12-9.5,24.3-18.9,36.6-28.2c6.1-4.7,12.3-9.3,18.5-14
			c6.2-4.6,168.7-124.6,168.7-124.6l37.5-28c12.5-9.4,25-18.7,37.3-28.4c-14.1,6.8-28,13.9-41.9,21c-13.9,7.1-27.7,14.4-41.5,21.7
			L389.1,3.7c-6.9,3.7-13.7,7.5-20.5,11.3c-13.7,7.5-27.3,15.1-40.9,22.9c-13.6,7.7-27.1,15.5-40.6,23.5c-6.7,4-73.5,44.7-80.1,48.9
			c-6.6,4.2-13.2,8.4-19.8,12.8c-6.6,4.3-13.2,8.6-19.7,13.1l-9.8,6.7c0,0-9.8,6.8-9.8,6.8c-21.7,15.2-40.6,32.2-56.1,53.8
			c-10.2,14.3-18.7,29.8-25.3,46.2c-6.5,16.4-11.3,33.5-13.9,51c-1.3,8.7-2.1,17.6-2.4,26.4c-0.3,8.9,0,17.7,0.7,26.6
			c1.5,17.7,5,35.2,10.6,52.1c2.8,8.5,6,16.8,9.8,24.8c3.8,8.1,8,15.9,12.7,23.5c9.1,14.8,20,28.5,32.2,40.9c0,0,0.9,0.9,0.9,0.9
			c12.4,12.2,26.1,23.1,40.9,32.2c15.2,9.3,31.4,16.9,48.4,22.5c16.9,5.5,34.4,9.1,52.1,10.6c8.8,0.7,17.7,1,26.6,0.7
			c8.9-0.2,17.7-1.1,26.4-2.4c17.5-2.6,34.7-7.3,51-13.9c16.4-6.6,31.9-15.1,46.2-25.3C421.9,511.1,433.3,500.3,443.7,488.4z"/>
		<path class="st0" d="M295.4,127.3c47.6-0.3,86.7,19.5,86.7,19.5L550.2-47.9L295.4,127.3z"/>
		<path class="st0" d="M661,62.9L466.2,231c0,0,19.9,39.1,19.5,86.7L661,62.9z"/>
	</g>
</g>
</svg>
