<?xml version="1.0" encoding="utf-8"?>
<!-- Generator: Adobe Illustrator 19.0.0, SVG Export Plug-In . SVG Version: 6.00 Build 0)  -->
<svg version="1.1" id="Capa_1" xmlns="http://www.w3.org/2000/svg" xmlns:xlink="http://www.w3.org/1999/xlink" x="0px" y="0px"
	 viewBox="50 -50 612 612" style="enable-background:new 50 -50 612 612;" xml:space="preserve">
<style type="text/css">
	.st0{fill:#2B2B2B;}
</style>
<g>
	<path class="st0" d="M661.5,153.4c-3.9-53.2-30.9-100.8-93.3-125c-69.4-26.9-152-13-216.8,16.8c-67.8,31.2-151.3,93.9-171.7,171.6
		c-8,30.4-5.3,63.9,10.1,91.3c19.8,35.2,59,56.9,99.1,61.3c55.2,6.1,112.8-16.5,155.4-50.7c24.3-19.5,46.5-45,59-73.8
		c11.2-25.8,13.9-56.4,1.9-81.9c-16.2-34.7-54.7-49.8-91.1-44.1c-4.8,0.7-9.3,1.8-13.7,3c-4.3,1.2-8.4,2.7-12.3,4.3
		c-7.8,3.1-14.7,6.9-20.8,10.9c-6.1,4-11.4,8.3-16,12.7c-1,1-2.1,2.1-3.1,3.1c-1.1,1.1-2,2.1-3,3.1c-1.9,2-3.6,4-5.2,5.9
		c-3.2,3.8-6,7.3-8.3,10.5c-4.7,6.4-8,11.3-10.3,14.7c-1.1,1.7-1.9,3-2.5,3.8c-0.5,0.9-0.8,1.3-0.8,1.3c-0.9,1.4-1,3.4,0,4.9
		c1.4,2.1,4.2,2.7,6.2,1.3c0,0,0.4-0.3,1.3-0.8c0.8-0.6,2.1-1.4,3.8-2.5c3.3-2.2,8.2-5.6,14.5-9.8c6.3-4.1,14-9,23.2-13.7
		c2.2-1.1,4.4-2.1,6.8-3c2.4-0.9,4.9-1.9,7.5-2.6c5.2-1.6,10.9-2.9,16.8-3.6c3-0.4,6-0.6,9-0.7c3-0.1,6.1,0,9.2,0.3
		c10.8,1,24.1,4.4,30.7,13.7c4.2,6.1,4.8,14.1,3.4,21.4c-2.5,12.6-10.3,23.6-18.9,33.2c-30.3,33.7-74.1,56.9-119.5,60.7
		c-37.8,2.9-73.1-14.4-78.1-55.7c-3.6-29.5,10.3-58.8,29.3-81.6c27-32.2,60.5-59.1,98.8-76c14.1-6.2,28.7-11.5,43.7-15.3
		c39.8-10.3,86.9-13.3,125.4,3.4c36.9,16,60.5,52.1,59.7,92.5c-0.2,11.8-2.4,23.9-6.1,35.9c-3.7,12-9,24-15.5,35.6
		c-6.5,11.5-14.2,22.7-22.8,33.1c-42.5,52.2-109.1,92-170.5,118.1c-74.1,31.5-215.7,68.7-268.6-17.8C80,317.7,90.2,260,105.1,212.4
		c0.5-1.7,0-3.7-1.5-4.9c-1.9-1.5-4.8-1.2-6.3,0.7c0,0-1.3,1.6-3.8,4.8c-0.6,0.8-1.3,1.7-2,2.7c-0.7,1-1.6,2.2-2.5,3.4
		c-22,30.3-36.7,66.9-38.8,104.5c-2,34.5,7,70,27,98.2c23.9,33.9,62.2,55.8,102.4,66.3c63.6,16.6,134,11,196.5-7.9
		c14.7-4.5,29.4-9.6,43.9-15.6c14.5-6,28.8-12.8,43-20.3c51.2-27.2,99.9-64.1,136.4-109.5C638.8,285.9,666.1,215.8,661.5,153.4z"/>
</g>
</svg>
