<?xml version="1.0" encoding="utf-8"?>
<!-- Generator: Adobe Illustrator 19.0.0, SVG Export Plug-In . SVG Version: 6.00 Build 0)  -->
<svg version="1.1" id="Capa_1" xmlns="http://www.w3.org/2000/svg" xmlns:xlink="http://www.w3.org/1999/xlink" x="0px" y="0px"
	 viewBox="-247 248.1 16.9 16.9" style="enable-background:new -247 248.1 16.9 16.9;" xml:space="preserve">
<style type="text/css">
	.st0{fill:#2B2B2B;}
</style>
<g>
	<path class="st0" d="M-230.1,255.9c-0.1-0.6-0.3-1.3-0.7-2c-0.4-0.7-2.4-3.3-2.7-3.8c-0.6-0.7-0.9-1.3-0.8-1.6
		c0.1-0.4-1.5-0.2-3.3,0.1c-0.7,0.1-2-0.2-1.7,0.7c0.2,0.9-2.5,0.2-2.5,0.2s-3.1,0.9-2.5,1.5c0.3,0.3-2.7,4-2.7,4.9
		c0.1,2.3,1.6,5.5,1.7,4.9c0.1-0.7,1.7,1.6,2.5,2.5c1,0.9,5.8,0.7,5.7,1.3c-0.1,0.6,3.4-0.5,2.8-1.3c-0.7-0.9,2.5-3,2-3.6
		C-232.8,259-230,257.2-230.1,255.9z M-244,258.5c-0.3,0-0.5-0.2-0.5-0.5s0.2-0.5,0.5-0.5c0.3,0,0.5,0.2,0.5,0.5
		C-243.6,258.3-243.8,258.5-244,258.5z M-240.1,257.6c-0.4,0-0.8-0.4-0.8-0.8c0-0.4,0.4-0.8,0.8-0.8c0.4,0,0.8,0.4,0.8,0.8
		C-239.3,257.3-239.7,257.6-240.1,257.6z M-241.1,254.4c-0.5,0.6-1.3,0.9-1.7,0.5c-0.4-0.3-0.3-1.1,0.2-1.8c0.5-0.6,1.3-0.9,1.7-0.5
		C-240.5,253-240.6,253.8-241.1,254.4z M-237.3,262.6c-0.8,0-1.4-0.6-1.4-1.4c0-0.8,0.6-1.4,1.4-1.4s1.4,0.6,1.4,1.4
		C-235.9,261.9-236.6,262.6-237.3,262.6z M-233.3,255.6c0.3,0,0.6,0.3,0.6,0.6c0,0.3-0.3,0.6-0.6,0.6s-0.6-0.3-0.6-0.6
		C-233.9,255.9-233.6,255.6-233.3,255.6z M-236.7,253.5c0-0.6,0.6-1.1,1.4-1.1c0.8,0,1.4,0.5,1.4,1.1c0,0.6-0.6,1.1-1.4,1.1
		C-236.1,254.6-236.7,254.1-236.7,253.5z"/>
</g>
</svg>
