<?xml version="1.0" encoding="utf-8"?>
<!-- Generator: Adobe Illustrator 19.0.0, SVG Export Plug-In . SVG Version: 6.00 Build 0)  -->
<svg version="1.1" id="Capa_1" xmlns="http://www.w3.org/2000/svg" xmlns:xlink="http://www.w3.org/1999/xlink" x="0px" y="0px"
	 viewBox="-31 33.6 447.4 447.4" style="enable-background:new -31 33.6 447.4 447.4;" xml:space="preserve">
<style type="text/css">
	.st0{fill:#2B2B2B;}
</style>
<g>
	<g>
		<g>
			<path class="st0" d="M362.3,221.8c41.2-32.7,57.3-60.6,47.7-82.9c-2.5-5.9-6.5-10.7-12.1-14.5c0-0.2,0-0.3,0-0.5
				c0-18.8-15.2-34-34-34c-15.6,0-28.7,10.5-32.7,24.8c-17.4,1.6-37.4,5.2-59,10.5c-23-17.4-51.4-27.3-81.4-27.3
				c-18.3,0-36.2,3.7-53.2,11c-33.1,14.2-58.8,40.5-72.1,74c-4.5,11.3-7.5,23-8.8,34.8c-27.8,17.7-50.3,35.5-65.2,51.7
				c-20.1,21.9-26.8,41.3-19.8,57.5c7.2,16.8,26.8,25.3,58.3,25.3c10.3,0,21.8-0.9,34.6-2.7c14-2,29-5,44.8-8.9
				c23,17.4,51.4,27.3,81.4,27.3c18.3,0,36.2-3.7,53.2-11c46-19.7,75.5-62.2,80.9-108.7C338.7,239.5,351.3,230.6,362.3,221.8z
				 M343.7,198.3c-6,4.8-12.5,9.5-19.4,14.3c-1.7-11.1-4.8-22.2-9.4-33c-4.6-10.7-10.5-20.6-17.4-29.5c15.4-3.2,28.3-5,39.2-5.9
				c6.2,8.3,16.1,13.6,27.2,13.6c6.9,0,13.3-2.1,18.7-5.6C382.3,157.5,375.8,172.9,343.7,198.3z M93.3,193.9
				c10.4-26,30.3-46.5,56.1-57.5c13.2-5.7,27.1-8.5,41.3-8.5c42.1,0,80,25,96.6,63.6c5.5,12.9,8.3,26.2,8.5,39.5
				c-25.8,15.4-55.4,30.4-86.9,44c-31.6,13.6-62.9,24.6-91.8,32.7c-9.5-9.4-17.3-20.6-22.7-33.3C83.3,248.5,82.9,220,93.3,193.9z
				 M60.5,319.8c-46.3,6.5-60.1-2.1-61.2-4.7c-2.1-5,8.8-27.8,58.1-61.9c1.7,11.2,4.9,22.2,9.4,32.9c4.6,10.7,10.5,20.6,17.4,29.5
				C76,317.4,68,318.8,60.5,319.8z M232.2,329.4c-13.2,5.7-27.1,8.5-41.3,8.5c-14.6,0-28.8-3-41.7-8.6c23.2-7.4,47.3-16.4,71.5-26.8
				c24.2-10.4,47.3-21.6,68.6-33.3C279.7,295.3,259.8,317.6,232.2,329.4z"/>
			<path class="st0" d="M364,319.7c-28.9,0-52.5,23.5-52.5,52.5c0,28.9,23.5,52.5,52.5,52.5c28.9,0,52.5-23.5,52.5-52.5
				C416.4,343.3,392.9,319.7,364,319.7z"/>
			<circle class="st0" cx="42.2" cy="123.7" r="22.1"/>
		</g>
	</g>
</g>
</svg>
