<?xml version="1.0" encoding="utf-8"?>
<!-- Generator: Adobe Illustrator 19.0.0, SVG Export Plug-In . SVG Version: 6.00 Build 0)  -->
<svg version="1.1" id="Capa_1" xmlns="http://www.w3.org/2000/svg" xmlns:xlink="http://www.w3.org/1999/xlink" x="0px" y="0px"
	 viewBox="50 -50 612 612" style="enable-background:new 50 -50 612 612;" xml:space="preserve">
<style type="text/css">
	.st0{fill:#2B2B2B;}
</style>
<g>
	<g id="Sun">
		<g>
			<path class="st0" d="M154.9,256c0-14.5-11.8-26.2-26.2-26.2H76.2C61.8,229.8,50,241.5,50,256c0,14.5,11.8,26.2,26.2,26.2h52.5
				C143.2,282.2,154.9,270.5,154.9,256z M181.1,404.6c-7.2,0-13.8,2.9-18.6,7.7l-35,35c-4.7,4.8-7.7,11.3-7.7,18.6
				c0,14.5,11.7,26.2,26.2,26.2c7.2,0,13.8-2.9,18.5-7.7l35-35c4.8-4.7,7.7-11.3,7.7-18.5C207.4,416.4,195.6,404.6,181.1,404.6z
				 M356,54.9c14.5,0,26.2-11.8,26.2-26.2v-52.5c0-14.5-11.7-26.2-26.2-26.2s-26.2,11.8-26.2,26.2v52.5
				C329.8,43.2,341.5,54.9,356,54.9z M530.9,107.4c7.2,0,13.8-2.9,18.5-7.7l35-35c4.8-4.8,7.7-11.3,7.7-18.6
				c0-14.5-11.7-26.2-26.2-26.2c-7.2,0-13.8,2.9-18.6,7.7l-35,35c-4.7,4.7-7.7,11.3-7.7,18.5C504.6,95.6,516.4,107.4,530.9,107.4z
				 M162.6,99.7c4.8,4.7,11.3,7.7,18.6,7.7c14.5,0,26.2-11.8,26.2-26.2c0-7.2-2.9-13.8-7.7-18.6l-35-35c-4.8-4.7-11.3-7.7-18.6-7.7
				c-14.5,0-26.2,11.8-26.2,26.2c0,7.2,2.9,13.8,7.7,18.5L162.6,99.7z M635.8,229.8h-52.5c-14.5,0-26.2,11.8-26.2,26.2
				s11.8,26.2,26.2,26.2h52.5c14.5,0,26.2-11.8,26.2-26.2C662,241.5,650.3,229.8,635.8,229.8z M549.4,412.3
				c-4.8-4.7-11.3-7.7-18.6-7.7c-14.5,0-26.2,11.8-26.2,26.2c0,7.2,2.9,13.8,7.7,18.5l35,35c4.8,4.8,11.3,7.7,18.6,7.7
				c14.5,0,26.2-11.8,26.2-26.2c0-7.2-2.9-13.8-7.7-18.6L549.4,412.3z M356,457.1c-14.5,0-26.2,11.8-26.2,26.2v52.5
				c0,14.5,11.7,26.2,26.2,26.2s26.2-11.8,26.2-26.2v-52.5C382.2,468.8,370.5,457.1,356,457.1z M356,72.4
				c-101.2,0-183.6,82.4-183.6,183.6S254.8,439.6,356,439.6S539.6,357.2,539.6,256S457.2,72.4,356,72.4z M356,387.1
				c-72.3,0-131.1-58.8-131.1-131.1c0-72.3,58.8-131.1,131.1-131.1S487.1,183.7,487.1,256S428.3,387.1,356,387.1z"/>
		</g>
	</g>
</g>
</svg>
